<?xml version="1.0" standalone="no"?>
<!DOCTYPE svg PUBLIC "-//W3C//DTD SVG 20010904//EN"
 "http://www.w3.org/TR/2001/REC-SVG-20010904/DTD/svg10.dtd">
<svg version="1.0" xmlns="http://www.w3.org/2000/svg"
 width="512.000000pt" height="512.000000pt" viewBox="0 0 512.000000 512.000000"
 preserveAspectRatio="xMidYMid meet">
<metadata>
Created by potrace 1.14, written by Peter Selinger 2001-2017
</metadata>
<g transform="translate(0.000000,512.000000) scale(0.100000,-0.100000)"
fill="#000000" stroke="none">
<path d="M2398 5115 c-2 -2 -41 -6 -88 -10 -46 -3 -87 -8 -90 -10 -3 -1 -30
-6 -60 -9 -45 -6 -141 -24 -210 -41 -339 -81 -715 -268 -990 -490 -353 -285
-617 -644 -783 -1065 -40 -103 -90 -258 -102 -319 -2 -13 -7 -31 -10 -41 -7
-23 -9 -32 -29 -150 -26 -159 -28 -188 -30 -393 -4 -279 24 -486 98 -745 260
-901 1026 -1610 1936 -1791 216 -42 259 -46 540 -45 231 0 306 6 475 39 275
53 605 182 842 329 439 272 798 680 997 1136 21 47 42 94 47 105 52 113 136
433 155 590 3 28 9 82 14 120 8 75 6 507 -3 521 -3 5 -8 34 -11 64 -13 120
-74 370 -124 506 -232 633 -670 1128 -1262 1428 -251 127 -544 218 -805 251
-27 3 -66 8 -85 11 -35 5 -417 13 -422 9z"/>
</g>
</svg>
